<svg id="Layer_1" data-name="Layer 1" xmlns="http://www.w3.org/2000/svg" viewBox="0 0 345 382"><defs><style>.cls-1,.cls-4{fill:#e0eab5;}.cls-1,.cls-2,.cls-5{stroke:#000;}.cls-1{stroke-linejoin:round;stroke-width:4px;}.cls-2{fill:#ea6c88;}.cls-2,.cls-5{stroke-miterlimit:10;stroke-width:5px;}.cls-3{fill:#afb5ce;}.cls-5{fill:#bee2a6;}</style></defs><polygon class="cls-1" points="173 175 216.3 175 194.65 100.5 173 26 151.35 100.5 129.7 175 173 175"/><rect class="cls-2" x="152.5" y="2.5" width="41" height="41" rx="20.5"/><rect class="cls-3" x="2" y="118" width="341" height="262" rx="39.89"/><path d="M704.11,179A37.94,37.94,0,0,1,742,216.89V399.11A37.94,37.94,0,0,1,704.11,437H442.89A37.94,37.94,0,0,1,405,399.11V216.89A37.94,37.94,0,0,1,442.89,179H704.11m0-4H442.89A41.88,41.88,0,0,0,401,216.89V399.11A41.88,41.88,0,0,0,442.89,441H704.11A41.88,41.88,0,0,0,746,399.11V216.89A41.88,41.88,0,0,0,704.11,175Z" transform="translate(-401 -59)"/><path class="cls-4" d="M485.11,317a41,41,0,0,1-40.94-40.95V271a40.95,40.95,0,1,1,81.89,0v5.1A41,41,0,0,1,485.11,317Z" transform="translate(-401 -59)"/><path d="M485.11,238A33,33,0,0,1,518.06,271v5.1a32.95,32.95,0,1,1-65.89,0V271A33,33,0,0,1,485.11,238m0-16h0A48.94,48.94,0,0,0,436.17,271v5.1A48.94,48.94,0,0,0,485.11,325h0a49,49,0,0,0,48.95-48.95V271A49,49,0,0,0,485.11,222Z" transform="translate(-401 -59)"/><path class="cls-4" d="M657.14,317a41,41,0,0,1-40.95-40.95V271a40.95,40.95,0,1,1,81.89,0v5.1A41,41,0,0,1,657.14,317Z" transform="translate(-401 -59)"/><path d="M657.14,238A33,33,0,0,1,690.08,271v5.1a32.95,32.95,0,1,1-65.89,0V271A33,33,0,0,1,657.14,238m0-16h0A48.94,48.94,0,0,0,608.19,271v5.1A48.94,48.94,0,0,0,657.14,325h0a48.94,48.94,0,0,0,48.94-48.95V271A48.94,48.94,0,0,0,657.14,222Z" transform="translate(-401 -59)"/><rect class="cls-5" x="85" y="309.5" width="171.5" height="26.5"/></svg>